<?xml version="1.0" standalone="no"?>
<!DOCTYPE svg PUBLIC "-//W3C//DTD SVG 20010904//EN"
 "http://www.w3.org/TR/2001/REC-SVG-20010904/DTD/svg10.dtd">
<svg version="1.0" xmlns="http://www.w3.org/2000/svg"
 width="150.000000pt" height="150.000000pt" viewBox="0 0 150.000000 150.000000"
 preserveAspectRatio="xMidYMid meet">
<metadata>
Created by potrace 1.14, written by Peter Selinger 2001-2017
</metadata>
<g transform="translate(0.000000,150.000000) scale(0.100000,-0.100000)"
fill="#000000" stroke="none">
<path d="M1080 1141 c-27 -6 -77 -38 -69 -44 72 -52 79 -59 79 -91 0 -64 -90
-116 -237 -137 -89 -12 -182 -4 -160 15 19 15 27 40 17 56 -11 18 -38 5 -52
-25 -10 -22 -9 -28 3 -36 21 -13 8 -11 -65 11 -85 27 -140 76 -134 120 3 16 1
30 -3 30 -9 0 -52 -57 -72 -96 -15 -30 -20 -32 -84 -36 -55 -3 -79 -10 -127
-38 -32 -19 -59 -40 -58 -45 0 -6 27 -25 59 -43 59 -33 67 -34 151 -16 29 6
32 4 32 -17 1 -42 36 -103 73 -129 25 -17 39 -35 43 -57 3 -18 12 -37 20 -44
9 -7 14 -33 14 -73 0 -70 15 -92 81 -120 54 -23 103 -11 139 33 17 19 30 42
30 51 1 13 2 13 10 -1 13 -22 111 -35 140 -19 15 8 29 8 55 -1 29 -11 40 -10
70 4 61 29 76 91 41 177 -4 10 8 25 35 45 62 46 82 94 81 192 -1 83 -15 126
-63 195 -22 30 -22 30 54 44 27 4 45 16 64 40 14 19 24 36 22 38 -27 22 -132
32 -189 17z m-10 -390 c0 -50 -4 -72 -16 -82 -22 -18 -34 3 -34 64 0 54 13 87
35 87 12 0 15 -15 15 -69z m-256 3 c12 -5 16 -21 16 -74 0 -60 -2 -69 -20 -75
-35 -11 -50 12 -50 74 0 69 15 90 54 75z"/>
<path d="M987 1091 c8 -30 -13 -57 -64 -82 -42 -20 -63 -24 -158 -23 -111 0
-102 -13 11 -15 112 -2 224 50 224 104 0 13 -4 26 -9 29 -5 4 -7 -3 -4 -13z"/>
<path d="M499 1060 c-31 -25 -12 -26 21 0 14 11 20 20 14 20 -7 0 -22 -9 -35
-20z"/>
<path d="M574 1031 c7 -11 46 -35 46 -28 0 3 -12 12 -26 22 -15 9 -23 12 -20
6z"/>
<path d="M1000 1000 c0 -10 41 -30 61 -30 15 0 10 27 -7 34 -24 9 -54 7 -54
-4z"/>
</g>
</svg>
